<mxfile host="Electron" modified="2023-04-29T10:57:44.449Z" agent="Mozilla/5.0 (X11; Linux x86_64) AppleWebKit/537.36 (KHTML, like Gecko) draw.io/21.2.1 Chrome/112.0.5615.87 Electron/24.1.2 Safari/537.36" etag="I7Wd7LAyu-sCikpKXvcM" version="21.2.1" type="device">
  <diagram name="Page-1" id="vBBFDTBqrACFFpriauXo">
    <mxGraphModel dx="1434" dy="875" grid="1" gridSize="10" guides="1" tooltips="1" connect="1" arrows="1" fold="1" page="1" pageScale="1" pageWidth="850" pageHeight="1100" math="0" shadow="0">
      <root>
        <mxCell id="0" />
        <mxCell id="1" parent="0" />
        <mxCell id="8IyxNHkYzyuaXLBX0Kt_-13" value="" style="rounded=0;whiteSpace=wrap;html=1;dashed=1;fillColor=#dae8fc;gradientColor=#7ea6e0;strokeColor=#6c8ebf;" vertex="1" parent="1">
          <mxGeometry x="515.5" y="339.75" width="230" height="140" as="geometry" />
        </mxCell>
        <mxCell id="8IyxNHkYzyuaXLBX0Kt_-41" value="" style="ellipse;whiteSpace=wrap;html=1;aspect=fixed;fillColor=#f5f5f5;gradientColor=#b3b3b3;strokeColor=#666666;" vertex="1" parent="1">
          <mxGeometry x="305" y="590" width="130" height="130" as="geometry" />
        </mxCell>
        <mxCell id="8IyxNHkYzyuaXLBX0Kt_-11" value="" style="ellipse;whiteSpace=wrap;html=1;aspect=fixed;dashed=1;fillColor=#fff2cc;gradientColor=#ffd966;strokeColor=#d6b656;" vertex="1" parent="1">
          <mxGeometry x="92.5" y="340" width="140" height="140" as="geometry" />
        </mxCell>
        <mxCell id="8IyxNHkYzyuaXLBX0Kt_-1" value="" style="outlineConnect=0;dashed=0;verticalLabelPosition=bottom;verticalAlign=top;align=center;html=1;shape=mxgraph.aws3.action;fillColor=#5294CF;gradientColor=none;" vertex="1" parent="1">
          <mxGeometry x="540" y="380" width="60" height="59.5" as="geometry" />
        </mxCell>
        <mxCell id="8IyxNHkYzyuaXLBX0Kt_-2" value="" style="outlineConnect=0;dashed=0;verticalLabelPosition=bottom;verticalAlign=top;align=center;html=1;shape=mxgraph.aws3.echo;fillColor=#205B99;gradientColor=none;" vertex="1" parent="1">
          <mxGeometry x="680" y="377.25" width="40.5" height="65" as="geometry" />
        </mxCell>
        <mxCell id="8IyxNHkYzyuaXLBX0Kt_-4" value="" style="outlineConnect=0;dashed=0;verticalLabelPosition=bottom;verticalAlign=top;align=center;html=1;shape=mxgraph.aws3.simulator;fillColor=#5294CF;gradientColor=none;" vertex="1" parent="1">
          <mxGeometry x="130" y="377" width="75" height="78" as="geometry" />
        </mxCell>
        <mxCell id="8IyxNHkYzyuaXLBX0Kt_-5" value="&lt;b&gt;192.168.56.102:56300&lt;/b&gt;" style="text;html=1;align=center;verticalAlign=middle;resizable=0;points=[];autosize=1;strokeColor=none;fillColor=none;" vertex="1" parent="1">
          <mxGeometry x="97.5" y="480" width="140" height="30" as="geometry" />
        </mxCell>
        <mxCell id="8IyxNHkYzyuaXLBX0Kt_-6" value="&lt;b&gt;192.168.56.104:1700&lt;/b&gt;" style="text;html=1;align=center;verticalAlign=middle;resizable=0;points=[];autosize=1;strokeColor=none;fillColor=none;" vertex="1" parent="1">
          <mxGeometry x="570" y="480" width="140" height="30" as="geometry" />
        </mxCell>
        <mxCell id="8IyxNHkYzyuaXLBX0Kt_-7" value="&lt;b&gt;LWN Simulator&lt;/b&gt;" style="text;html=1;align=center;verticalAlign=middle;resizable=0;points=[];autosize=1;strokeColor=none;fillColor=none;" vertex="1" parent="1">
          <mxGeometry x="112.5" y="300" width="110" height="30" as="geometry" />
        </mxCell>
        <mxCell id="8IyxNHkYzyuaXLBX0Kt_-9" value="" style="endArrow=classic;startArrow=classic;html=1;rounded=0;exitX=1;exitY=0.45;exitDx=0;exitDy=0;exitPerimeter=0;entryX=0;entryY=0.5;entryDx=0;entryDy=0;entryPerimeter=0;strokeWidth=4;" edge="1" parent="1" source="8IyxNHkYzyuaXLBX0Kt_-4" target="8IyxNHkYzyuaXLBX0Kt_-1">
          <mxGeometry width="50" height="50" relative="1" as="geometry">
            <mxPoint x="560" y="470" as="sourcePoint" />
            <mxPoint x="610" y="420" as="targetPoint" />
          </mxGeometry>
        </mxCell>
        <mxCell id="8IyxNHkYzyuaXLBX0Kt_-10" value="&lt;b&gt;Gateway bridge&lt;/b&gt;" style="text;html=1;align=center;verticalAlign=middle;resizable=0;points=[];autosize=1;strokeColor=none;fillColor=none;" vertex="1" parent="1">
          <mxGeometry x="510" y="350" width="110" height="30" as="geometry" />
        </mxCell>
        <mxCell id="8IyxNHkYzyuaXLBX0Kt_-14" value="&lt;b&gt;192.168.56.X/24&lt;/b&gt;" style="text;html=1;align=center;verticalAlign=middle;resizable=0;points=[];autosize=1;strokeColor=none;fillColor=none;" vertex="1" parent="1">
          <mxGeometry x="315" y="310" width="110" height="30" as="geometry" />
        </mxCell>
        <mxCell id="8IyxNHkYzyuaXLBX0Kt_-15" value="&lt;b&gt;Semtech UDP protocol&lt;/b&gt;" style="text;html=1;align=center;verticalAlign=middle;resizable=0;points=[];autosize=1;strokeColor=none;fillColor=none;" vertex="1" parent="1">
          <mxGeometry x="300" y="377" width="150" height="30" as="geometry" />
        </mxCell>
        <mxCell id="8IyxNHkYzyuaXLBX0Kt_-38" value="&lt;b&gt;Chirpstack Network Server&amp;nbsp;&lt;/b&gt;" style="text;html=1;align=center;verticalAlign=middle;resizable=0;points=[];autosize=1;strokeColor=none;fillColor=none;" vertex="1" parent="1">
          <mxGeometry x="550" y="300" width="180" height="30" as="geometry" />
        </mxCell>
        <mxCell id="8IyxNHkYzyuaXLBX0Kt_-39" value="" style="sketch=0;points=[[0.015,0.015,0],[0.985,0.015,0],[0.985,0.985,0],[0.015,0.985,0],[0.25,0,0],[0.5,0,0],[0.75,0,0],[1,0.25,0],[1,0.5,0],[1,0.75,0],[0.75,1,0],[0.5,1,0],[0.25,1,0],[0,0.75,0],[0,0.5,0],[0,0.25,0]];verticalLabelPosition=bottom;html=1;verticalAlign=top;aspect=fixed;align=center;pointerEvents=1;shape=mxgraph.cisco19.rect;prIcon=next_generation_intrusion_prevention_system;fillColor=#f8cecc;strokeColor=#b85450;gradientColor=#ea6b66;" vertex="1" parent="1">
          <mxGeometry x="345" y="630" width="50" height="50" as="geometry" />
        </mxCell>
        <mxCell id="8IyxNHkYzyuaXLBX0Kt_-40" value="&lt;b&gt;Spoofed IP: Port&lt;/b&gt;" style="text;html=1;align=center;verticalAlign=middle;resizable=0;points=[];autosize=1;strokeColor=none;fillColor=none;" vertex="1" parent="1">
          <mxGeometry x="310" y="760" width="120" height="30" as="geometry" />
        </mxCell>
        <mxCell id="8IyxNHkYzyuaXLBX0Kt_-42" value="&lt;b&gt;192.168.56.X: Y&lt;/b&gt;" style="text;html=1;align=center;verticalAlign=middle;resizable=0;points=[];autosize=1;strokeColor=none;fillColor=none;" vertex="1" parent="1">
          <mxGeometry x="315" y="730" width="110" height="30" as="geometry" />
        </mxCell>
        <mxCell id="8IyxNHkYzyuaXLBX0Kt_-44" value="" style="html=1;labelBackgroundColor=#ffffff;jettySize=auto;orthogonalLoop=1;strokeWidth=1;fontSize=14;endArrow=none;endFill=0;rounded=0;shape=link;entryX=0.467;entryY=1.167;entryDx=0;entryDy=0;entryPerimeter=0;exitX=0.5;exitY=0;exitDx=0;exitDy=0;" edge="1" parent="1" source="8IyxNHkYzyuaXLBX0Kt_-41" target="8IyxNHkYzyuaXLBX0Kt_-15">
          <mxGeometry width="60" height="60" relative="1" as="geometry">
            <mxPoint y="660" as="sourcePoint" />
            <mxPoint x="60" y="600" as="targetPoint" />
          </mxGeometry>
        </mxCell>
        <mxCell id="8IyxNHkYzyuaXLBX0Kt_-45" value="" style="endArrow=classic;startArrow=classic;html=1;rounded=0;strokeWidth=4;exitX=1;exitY=0.5;exitDx=0;exitDy=0;exitPerimeter=0;" edge="1" parent="1" source="8IyxNHkYzyuaXLBX0Kt_-1" target="8IyxNHkYzyuaXLBX0Kt_-2">
          <mxGeometry width="50" height="50" relative="1" as="geometry">
            <mxPoint x="600" y="410" as="sourcePoint" />
            <mxPoint x="680" y="410" as="targetPoint" />
          </mxGeometry>
        </mxCell>
        <mxCell id="8IyxNHkYzyuaXLBX0Kt_-46" value="&lt;b&gt;eavesdropping&lt;/b&gt;" style="text;html=1;align=center;verticalAlign=middle;resizable=0;points=[];autosize=1;strokeColor=none;fillColor=none;" vertex="1" parent="1">
          <mxGeometry x="370" y="500" width="110" height="30" as="geometry" />
        </mxCell>
        <mxCell id="8IyxNHkYzyuaXLBX0Kt_-47" value="&lt;b&gt;1&lt;/b&gt;" style="text;html=1;align=center;verticalAlign=middle;resizable=0;points=[];autosize=1;strokeColor=none;fillColor=none;" vertex="1" parent="1">
          <mxGeometry x="340" y="500" width="30" height="30" as="geometry" />
        </mxCell>
        <mxCell id="8IyxNHkYzyuaXLBX0Kt_-48" value="&lt;b&gt;2&lt;/b&gt;" style="text;html=1;align=center;verticalAlign=middle;resizable=0;points=[];autosize=1;strokeColor=none;fillColor=none;" vertex="1" parent="1">
          <mxGeometry x="175" y="600" width="30" height="30" as="geometry" />
        </mxCell>
        <mxCell id="8IyxNHkYzyuaXLBX0Kt_-50" value="" style="curved=1;endArrow=classic;html=1;rounded=0;exitX=0;exitY=1;exitDx=0;exitDy=0;" edge="1" parent="1" source="8IyxNHkYzyuaXLBX0Kt_-41">
          <mxGeometry width="50" height="50" relative="1" as="geometry">
            <mxPoint x="290" y="700" as="sourcePoint" />
            <mxPoint x="160" y="520" as="targetPoint" />
            <Array as="points">
              <mxPoint x="220" y="680" />
              <mxPoint x="160" y="620" />
            </Array>
          </mxGeometry>
        </mxCell>
        <mxCell id="8IyxNHkYzyuaXLBX0Kt_-51" value="&lt;b&gt;Join accept replay&amp;nbsp;&lt;/b&gt;" style="text;html=1;align=center;verticalAlign=middle;resizable=0;points=[];autosize=1;strokeColor=none;fillColor=none;" vertex="1" parent="1">
          <mxGeometry x="50" y="630" width="130" height="30" as="geometry" />
        </mxCell>
        <mxCell id="8IyxNHkYzyuaXLBX0Kt_-52" value="&lt;b&gt;join request replay&lt;/b&gt;" style="text;html=1;align=center;verticalAlign=middle;resizable=0;points=[];autosize=1;strokeColor=none;fillColor=none;" vertex="1" parent="1">
          <mxGeometry x="615.5" y="630" width="130" height="30" as="geometry" />
        </mxCell>
        <mxCell id="8IyxNHkYzyuaXLBX0Kt_-53" value="" style="curved=1;endArrow=classic;html=1;rounded=0;exitX=1;exitY=1;exitDx=0;exitDy=0;" edge="1" parent="1" source="8IyxNHkYzyuaXLBX0Kt_-41">
          <mxGeometry width="50" height="50" relative="1" as="geometry">
            <mxPoint x="430" y="710" as="sourcePoint" />
            <mxPoint x="640" y="520" as="targetPoint" />
            <Array as="points">
              <mxPoint x="550" y="680" />
              <mxPoint x="610" y="640" />
            </Array>
          </mxGeometry>
        </mxCell>
        <mxCell id="8IyxNHkYzyuaXLBX0Kt_-55" value="&lt;b&gt;3&lt;/b&gt;" style="text;html=1;align=center;verticalAlign=middle;resizable=0;points=[];autosize=1;strokeColor=none;fillColor=none;fontSize=11;fontFamily=Helvetica;fontColor=default;" vertex="1" parent="1">
          <mxGeometry x="570" y="590" width="30" height="30" as="geometry" />
        </mxCell>
      </root>
    </mxGraphModel>
  </diagram>
</mxfile>
